<?xml version="1.0" encoding="UTF-8" standalone="no"?>
<svg
   xmlns:dc="http://purl.org/dc/elements/1.1/"
   xmlns:cc="http://creativecommons.org/ns#"
   xmlns:rdf="http://www.w3.org/1999/02/22-rdf-syntax-ns#"
   xmlns:svg="http://www.w3.org/2000/svg"
   xmlns="http://www.w3.org/2000/svg"
   xmlns:sodipodi="http://sodipodi.sourceforge.net/DTD/sodipodi-0.dtd"
   xmlns:inkscape="http://www.inkscape.org/namespaces/inkscape"
   viewBox="0 0 576 576"
   version="1.1"
   id="svg4710"
   sodipodi:docname="thumbnail.svg"
   inkscape:version="0.92.1 r15371"
   width="576"
   height="576">
  <metadata
     id="metadata4716">
    <rdf:RDF>
      <cc:Work
         rdf:about="">
        <dc:format>image/svg+xml</dc:format>
        <dc:type
           rdf:resource="http://purl.org/dc/dcmitype/StillImage" />
        <dc:title></dc:title>
      </cc:Work>
    </rdf:RDF>
  </metadata>
  <defs
     id="defs4714" />
  <sodipodi:namedview
     pagecolor="#ffffff"
     bordercolor="#666666"
     borderopacity="1"
     objecttolerance="10"
     gridtolerance="10"
     guidetolerance="10"
     inkscape:pageopacity="0"
     inkscape:pageshadow="2"
     inkscape:window-width="1920"
     inkscape:window-height="1027"
     id="namedview4712"
     showgrid="false"
     showguides="true"
     inkscape:guide-bbox="true"
     inkscape:snap-bbox="false"
     inkscape:zoom="1"
     inkscape:cx="105.39872"
     inkscape:cy="342.42107"
     inkscape:window-x="0"
     inkscape:window-y="0"
     inkscape:window-maximized="1"
     inkscape:current-layer="svg4710" />
  <path
     d="M 0,0 H 576 V 576 H 0 Z"
     id="path4704"
     inkscape:connector-curvature="0"
     style="fill:#000000;fill-opacity:1;stroke-width:1.125" />
  <g
     id="g4531"
     transform="translate(2.4999997e-7,-44.499999)">
    <g
       id="g5320"
       class=""
       transform="matrix(0.65901333,0,0,0.66225166,37.884049,98.483442)">
      <path
         id="path5318"
         d="m 265,34 47.898,35.924 61.563,123.123 -8.057,32.23 -24.943,-4.158 3.16,-10.533 2.842,-9.473 -91.463,-18.29 -91.463,18.29 6.002,20.006 -24.943,4.156 -8.057,-32.228 L 199.1,69.926 247,34 v 56 h -39 l -16,32 64,38 64,-38 -16,-32 h -39 z m 188.313,169.258 30.3,10.101 -13.478,29.205 -30.016,-5.001 z m -394.626,0 13.194,34.304 -30.016,5.002 -13.478,-29.205 z M 256,205.32 309.8,264.012 281.306,359 h -50.61 L 202.2,264.012 Z m 25.254,0.909 43.283,8.658 -8.715,29.052 z m -50.508,0.002 -34.568,37.709 -8.715,-29.053 z m 105.5,32.267 L 482.5,262.873 429.799,368.28 329.98,259.385 Z m -160.492,0 6.266,20.887 L 82.2,368.279 29.5,262.873 Z m 148.205,40.96 72.201,78.765 -84.556,-37.582 z m -135.918,0 12.355,41.183 -84.556,37.582 z m 118.348,58.564 28.646,12.732 L 312.973,439 H 265 v -62 h 29.695 z m -100.778,0 L 217.305,377 H 247 v 62 h -47.973 l -22.062,-88.246 z m 181.989,36.093 18.105,8.047 -9.984,21.635 -16.387,-8.193 z m -263.2,0 8.266,21.489 -16.387,8.193 -9.984,-21.635 z M 311,457 v 30 h -30 v -30 z m -80,0 v 30 h -30 v -30 z"
         inkscape:connector-curvature="0"
         style="fill:#ffffff;fill-opacity:1" />
    </g>
    <g
       id="g4524">
      <path
         style="fill:#ffffff;fill-opacity:1;stroke-width:1.07458723"
         inkscape:connector-curvature="0"
         id="path4706"
         d="m 391.89958,304 v 151.21887 l 8.56904,-0.0281 v 17.65748 h 4.08101 c 9.95936,-20.39035 30.82068,-34.49779 54.83113,-34.49779 20.8474,0 39.31796,10.63718 50.34309,26.78537 v -61.28314 h 17.13808 V 364.7462 l -30.26584,-45.69339 z m 19.86197,21.03933 69.37706,8.32906 26.56402,38.28176 v 18.04126 h -95.94108 v -64.65315 z m 117.24263,98.21842 v 49.59057 H 544 V 423.25775 Z M 90.912133,455.59942 c -24.140049,0 -43.916317,19.90415 -43.916317,44.20029 0,24.29614 19.776269,44.20029 43.916317,44.20029 24.140047,0 43.916327,-19.90415 43.916327,-44.20029 0,-24.29614 -19.77628,-44.20029 -43.916327,-44.20029 z m 111.397497,0 c -24.14005,0 -43.91632,19.90415 -43.91632,44.20029 0,24.29614 19.77627,44.20029 43.91632,44.20029 24.14005,0 43.91631,-19.90415 43.91631,-44.20029 0,-24.29614 -19.77626,-44.20029 -43.91631,-44.20029 z m 257.07113,0 c -24.14005,0 -43.91633,19.90415 -43.91633,44.20029 0,24.29614 19.77628,44.20029 43.91633,44.20029 24.14005,0 43.91631,-19.90415 43.91631,-44.20029 0,-24.29614 -19.77626,-44.20029 -43.91631,-44.20029 z M 32,457.75554 v 15.09278 h 4.081004 c 2.7121,-5.552 6.238259,-10.62963 10.411381,-15.09278 z m 103.33188,0 c 4.17313,4.46315 7.69929,9.54078 10.41138,15.09278 h 1.73524 c 2.7121,-5.552 6.23825,-10.62963 10.41138,-15.09278 z m 111.3975,0 c 4.17311,4.46315 7.69928,9.54078 10.41138,15.09278 h 4.081 v -15.09278 z m 134.45891,16.90175 -100.68619,0.31803 v 32.34167 l 100.68619,-0.31803 z m -290.276157,0.34713 c 13.721167,0 24.635987,10.9854 24.635987,24.79529 0,13.8099 -10.91482,24.79528 -24.635987,24.79528 -13.721171,0 -24.635983,-10.98538 -24.635983,-24.79528 0,-13.80989 10.914812,-24.79529 24.635983,-24.79529 z m 111.397497,0 c 13.72117,0 24.63598,10.9854 24.63598,24.79529 0,13.8099 -10.91481,24.79528 -24.63598,24.79528 -13.72117,0 -24.63599,-10.98538 -24.63599,-24.79528 0,-13.80989 10.91482,-24.79529 24.63599,-24.79529 z m 257.07113,0 c 13.72117,0 24.63598,10.9854 24.63598,24.79529 0,13.8099 -10.91481,24.79528 -24.63598,24.79528 -13.72117,0 -24.63599,-10.98538 -24.63599,-24.79528 0,-13.80989 10.91482,-24.79529 24.63599,-24.79529 z"
         sodipodi:nodetypes="cccccsccccccccccccccccccsssssssssssssssccccccccccccccccccccsssssssssssssss" />
      <rect
         style="opacity:1;fill:#ffffff;fill-opacity:1;stroke:#ffffff;stroke-width:0;stroke-linecap:round;stroke-linejoin:miter;stroke-miterlimit:4;stroke-dasharray:none;stroke-opacity:1"
         id="rect6524"
         width="349.18292"
         height="16.170588"
         x="32"
         y="430.80588" />
    </g>
  </g>
</svg>
